<?xml version="1.0" encoding="UTF-8" standalone="no"?>
<!-- Created with Inkscape (http://www.inkscape.org/) -->

<svg
   width="55.149757"
   height="63.985992"
   viewBox="0 0 55.149758 63.985993"
   version="1.1"
   id="SVGRoot"
   xmlns="http://www.w3.org/2000/svg"
   xmlns:svg="http://www.w3.org/2000/svg">
  <defs
     id="defs1049" />
  <g
     id="layer1"
     transform="rotate(179.72832,27.620558,31.984934)">
    <path
       style="fill:#ffffff;fill-opacity:1;fill-rule:evenodd;stroke:#ffffff;stroke-width:2.002;stroke-linecap:round;stroke-linejoin:round;stroke-dasharray:none;stroke-opacity:1;paint-order:normal"
       d="m 33.981909,18.589555 c 0,0 0.02122,7.672173 0.02122,7.672173 0,0 20.15228,-0.123031 20.15228,-0.123031 0,0 0.0214,7.739473 0.0214,7.739473 0,0 -19.887116,0.122293 -19.887116,0.122293 0,0 0.02056,7.436622 0.02056,7.436622 0,0 -15.057694,-11.433056 -15.057694,-11.433056 0,0 14.729349,-11.414474 14.72935,-11.414474 z"
       id="path10193" />
    <path
       style="fill:#ffffff;fill-opacity:1;fill-rule:evenodd;stroke:#ffffff;stroke-width:2.002;stroke-linecap:round;stroke-linejoin:round;stroke-dasharray:none;stroke-opacity:1;paint-order:normal"
       d="m 47.588544,22.359233 6.257561,0.08346 L 53.938044,1.1093187 1.2374368,1.3258253 V 62.844115 l 52.8562322,0.08839 0.07501,-24.490726 -6.75851,-0.0053 L 47.287766,55.15433 9.987883,55.24272 9.899496,9.0156145 l 37.5704,-0.035614 0.03947,7.1936205 z"
       id="path11143" />
  </g>
</svg>
