<?xml version="1.0" encoding="UTF-8" standalone="no"?>
<!-- Created with Inkscape (http://www.inkscape.org/) -->

<svg
   width="56.103127"
   height="63.608681"
   viewBox="0 0 56.103127 63.608681"
   version="1.1"
   id="SVGRoot"
   xmlns="http://www.w3.org/2000/svg"
   xmlns:svg="http://www.w3.org/2000/svg">
  <defs
     id="defs1049" />
  <g
     id="layer1"
     transform="translate(-0.23643675,-0.32482526)">
    <path
       style="fill:#ffffff;fill-opacity:1;fill-rule:evenodd;stroke:#ffffff;stroke-width:2.002;stroke-linecap:round;stroke-linejoin:round;stroke-dasharray:none;stroke-opacity:1;paint-order:normal"
       d="m 40.692353,41.592756 c 0,0 -0.0768,-7.671818 -0.0768,-7.671818 0,0 -20.15086,0.269017 -20.15086,0.269017 0,0 -0.07747,-7.739115 -0.07747,-7.739115 0,0 19.885708,-0.266358 19.885708,-0.266358 0,0 -0.07443,-7.436278 -0.07443,-7.436278 0,0 15.140124,11.323673 15.140124,11.323673 0,0 -14.646272,11.520879 -14.646272,11.520879 z"
       id="path10193" />
    <path
       style="fill:#ffffff;fill-opacity:1;fill-rule:evenodd;stroke:#ffffff;stroke-width:2.002;stroke-linecap:round;stroke-linejoin:round;stroke-dasharray:none;stroke-opacity:1;paint-order:normal"
       d="m 46.521447,18.556218 c 0,0 7.424936,5.623161 7.424936,5.623161 0,0 -0.117879,-22.8535537 -0.117879,-22.8535537 0,0 -52.5910672,0 -52.5910672,0 0,0 0,61.5182897 0,61.5182897 0,0 52.8562322,0.08839 52.8562322,0.08839 0,0 0.08839,-27.312 0.08839,-27.312 0,0 -6.894291,5.745243 -6.894291,5.745243 0,0 -2e-6,13.788582 -2e-6,13.788582 0,0 -37.299883,0.08839 -37.299883,0.08839 0,0 -0.088387,-46.2271055 -0.088387,-46.2271055 0,0 36.5927757,0.1767763 36.5927757,0.1767763 0,0 0.02918,9.3638312 0.02918,9.3638312 z"
       id="path11143" />
  </g>
</svg>
