<?xml version="1.0" encoding="UTF-8" standalone="no"?>
<!-- Created with Inkscape (http://www.inkscape.org/) -->

<svg
   width="53.196846"
   height="53.17757"
   viewBox="0 0 53.196846 53.17757"
   version="1.1"
   id="SVGRoot"
   xmlns="http://www.w3.org/2000/svg"
   xmlns:svg="http://www.w3.org/2000/svg">
  <defs
     id="defs132" />
  <g
     id="layer1"
     transform="translate(-14.99935,-13.512882)">
    <path
       style="fill:#790f0f;fill-opacity:1;fill-rule:evenodd;stroke:#5f0000;stroke-width:2.002;stroke-linecap:round;stroke-linejoin:round;stroke-opacity:1"
       d="m 29.061817,22.135796 c -2.101661,-0.394379 -2.827094,-1.278316 -3.881102,-1.481147 -1.054009,-0.202831 -2.436283,0.276733 -3.804763,1.250089 -1.36848,0.973357 -2.722545,2.44026 -3.667639,4.231905 -0.945094,1.791645 -1.481078,3.907371 -1.650215,6.573364 -0.169136,2.665992 0.02833,5.881896 0.762103,8.547771 0.733772,2.665874 2.003208,4.7816 4.246126,6.38917 2.242918,1.607569 5.458821,2.707746 8.307759,2.961342 2.848937,0.253596 5.331389,-0.338808 7.432589,-1.791438 2.1012,-1.45263 3.821991,-3.765824 5.063184,-6.262132 1.241193,-2.496309 2.002854,-5.176228 2.242801,-7.630247 0.239947,-2.454019 -0.04215,-4.682584 -0.183268,-5.797421 -0.141119,-1.114837 -5.811266,-6.784983 -7.549685,-6.737963 -1.738419,0.04702 -5.216229,0.141086 -7.31789,-0.253293 z"
       id="path2214" />
    <path
       style="fill:#790f0f;fill-opacity:1;fill-rule:evenodd;stroke:#5f0000;stroke-width:2.002;stroke-linecap:round;stroke-linejoin:round;stroke-opacity:1"
       d="m 51.184689,19.056084 c 2.576152,-0.394368 3.465366,-1.278305 4.757273,-1.481169 1.291907,-0.202865 2.98626,0.2767 4.663664,1.249973 1.677404,0.973273 3.337179,2.440176 4.495747,4.231858 1.158568,1.791682 1.815563,3.907408 2.022906,6.573484 0.207344,2.666075 -0.03471,5.881979 -0.934165,8.547868 -0.899457,2.665889 -2.455496,4.781615 -5.204743,6.389145 -2.749246,1.607529 -6.691211,2.707707 -10.183453,2.961303 -3.492242,0.253595 -6.535162,-0.338808 -9.110803,-1.791542 -2.575641,-1.452734 -4.684939,-3.765928 -6.206281,-6.262198 -1.521341,-2.496269 -2.454965,-5.176188 -2.749062,-7.630105 -0.294098,-2.453917 0.05169,-4.682482 0.224672,-5.797345 0.172983,-1.114864 7.123291,-6.78501 9.25419,-6.73799 2.1309,0.04702 6.393903,0.141085 8.970055,-0.253282 z"
       id="path2214-7" />
    <path
       style="fill:#790f0f;fill-opacity:1;fill-rule:evenodd;stroke:#5f0000;stroke-width:2.002;stroke-linecap:round;stroke-linejoin:round;stroke-opacity:1"
       d="m 54.852063,40.244982 c 2.296041,1.232996 3.537984,1.060888 4.692481,1.675148 1.154497,0.61426 2.220534,2.015823 2.976318,3.801806 0.755784,1.785983 1.200818,3.955915 1.05007,6.084219 -0.150749,2.128304 -0.897131,4.214175 -2.333651,6.469692 -1.43652,2.255518 -3.56266,4.680422 -5.783755,6.011151 -2.221095,1.330728 -4.533772,1.567682 -6.645315,1.314179 C 46.696669,65.347674 44.792794,64.60379 42.786117,64.117855 40.779439,63.63192 38.673783,63.405457 36.583828,62.142188 34.493873,60.87892 32.415173,58.57382 31.2296,55.864801 30.044028,53.155783 29.748304,50.039286 30.032537,47.12981 c 0.284234,-2.909477 1.148581,-5.612534 2.38826,-7.750618 1.239678,-2.138083 2.855364,-3.711495 3.663628,-4.498612 0.808265,-0.787117 9.771039,-1.142128 11.445941,0.176069 1.674903,1.318197 5.025655,3.955337 7.321697,5.188333 z"
       id="path2214-7-0" />
    <path
       style="fill:#ee9956;fill-opacity:1;fill-rule:evenodd;stroke:#734b17;stroke-width:2.002;stroke-linecap:round;stroke-linejoin:round;stroke-opacity:1"
       d="m 30.804973,21.157262 c 0,0 2.031098,-4.485339 2.031098,-4.485339"
       id="path2439" />
    <path
       style="fill:#ee9956;fill-opacity:1;fill-rule:evenodd;stroke:#734b17;stroke-width:2.002;stroke-linecap:round;stroke-linejoin:round;stroke-opacity:1"
       d="m 48.407815,18.23756 c 0,0 -1.269435,-3.723678 -1.269435,-3.723678"
       id="path2439-5" />
    <path
       style="fill:#ee9956;fill-opacity:1;fill-rule:evenodd;stroke:#734b17;stroke-width:2.002;stroke-linecap:round;stroke-linejoin:round;stroke-opacity:1"
       d="m 53.908702,38.294644 c 0,0 2.031098,-4.485339 2.031098,-4.485339"
       id="path2439-6" />
  </g>
</svg>
