<?xml version="1.0" encoding="UTF-8" standalone="no"?>
<!-- Created with Inkscape (http://www.inkscape.org/) -->

<svg
   width="56.103127"
   height="63.608681"
   viewBox="0 0 56.103127 63.608681"
   version="1.1"
   id="SVGRoot"
   xmlns="http://www.w3.org/2000/svg"
   xmlns:svg="http://www.w3.org/2000/svg">
  <defs
     id="defs1049" />
  <path
     style="fill:none;fill-rule:evenodd;stroke:#ffffff;stroke-width:1.001;stroke-linecap:square;stroke-linejoin:miter;stroke-dasharray:none;stroke-opacity:1"
     d="m 8.0478594,48.256785 c -7.06650996,5.103728 -7.38752365,5.320752 -7.51422069,6.9671 -0.12669704,1.646348 -0.0588997,4.719827 0.00892,7.794327 2.0432714,-7.67e-4 4.0875424,-0.0015 5.4912977,-0.07272 1.4037553,-0.07118 2.1682018,-0.212637 8.8534024,-5.894078 6.6852,-5.681441 19.29188,-16.902961 25.892579,-22.750325 6.600698,-5.847364 7.19535,-6.320529 7.801312,-7.259747 0.605963,-0.939219 1.223567,-2.345064 0.919358,-3.107764 -0.30421,-0.762699 -1.531527,-0.881892 -2.81231,-0.901587 -1.280783,-0.0197 -2.614881,0.06027 -10.188332,5.095441 -7.57345,5.035171 -21.385497,15.025622 -28.4520066,20.12935 z"
     id="path1132" />
  <path
     style="fill:none;fill-rule:evenodd;stroke:#ffffff;stroke-width:1.001;stroke-linecap:round;stroke-linejoin:miter;stroke-dasharray:none;stroke-opacity:1"
     d="m 1.8667058,54.579811 c 0,0 5.1348528,7.187364 5.1348528,7.187364"
     id="path1829" />
  <path
     style="fill:#ffffff;fill-opacity:1;fill-rule:evenodd;stroke:none;stroke-width:1.001;stroke-linecap:round;stroke-linejoin:miter;stroke-dasharray:none;stroke-opacity:1"
     d="m 0.67819858,58.759125 c 0,0 3.03832962,4.204831 3.03832962,4.204831 0,0 -3.17396934,0.02713 -3.17396934,0.02713 0,0 0.13563972,-4.231961 0.13563972,-4.231961 z"
     id="path1885" />
  <path
     style="fill:#ffffff;fill-opacity:1;fill-rule:evenodd;stroke:#ffffff;stroke-width:1.001;stroke-linecap:square;stroke-linejoin:miter;stroke-dasharray:none;stroke-opacity:1"
     d="m 45.208717,23.981102 c 0,0 2.441515,2.984073 2.441515,2.984073"
     id="path1889" />
</svg>
