<?xml version="1.0" encoding="UTF-8" standalone="no"?>
<!-- Created with Inkscape (http://www.inkscape.org/) -->

<svg
   width="56.103127"
   height="63.608681"
   viewBox="0 0 56.103127 63.608681"
   version="1.1"
   id="SVGRoot"
   xmlns="http://www.w3.org/2000/svg"
   xmlns:svg="http://www.w3.org/2000/svg">
  <defs
     id="defs1049" />
  <path
     style="fill:none;fill-rule:evenodd;stroke:#ffffff;stroke-width:3.102;stroke-linecap:round;stroke-linejoin:round;stroke-opacity:1"
     d="m 54.63134,13.927317 c 0,0 -13.63471,47.995287 -13.63471,47.995287 0,0 -27.922148,0.07476 -27.922148,0.07476 0,0 -11.3864345,-49.490467 -11.3864345,-49.490467 2.1515767,0.971867 4.3043592,1.944279 7.7492235,2.567029 3.444864,0.62275 8.183168,0.896866 13.187361,0.984046 5.004192,0.08718 10.274347,-0.0125 14.624344,-0.27258 4.349996,-0.26008 7.779952,-0.680475 10.523817,-1.01689 2.743864,-0.336416 4.800774,-0.588746 6.858547,-0.841183 z"
     id="path353" />
  <path
     style="fill:none;fill-rule:evenodd;stroke:#ffffff;stroke-width:3.102;stroke-linecap:round;stroke-linejoin:round;stroke-opacity:1"
     d="m 1.3563971,8.3554064 c -0.53133922,1.9506846 3.6807771,1.7359266 5.6426122,2.2244916 2.9670762,0.738905 6.0621357,0.858779 9.1149887,1.030862 4.586385,0.258525 9.189312,0.134933 13.780995,0 4.002032,-0.117605 8.005401,-0.31975 11.990551,-0.705326 3.78828,-0.366528 6.794968,-0.411389 11.33948,-1.5191658 0.590651,-0.143978 1.384052,-0.2607305 1.410653,-0.8680941 C 54.672566,7.6759273 53.483231,7.3907524 52.736721,6.9990093 51.986954,6.6055574 51.175276,6.3179618 50.349462,6.1309151 47.974805,5.5930555 45.511134,5.5432806 43.079173,5.4255886 c -4.208948,-0.2036872 -8.427963,-0.042644 -12.641621,0 C 25.969798,5.4708041 21.497491,5.4497239 17.036348,5.696868 13.248577,5.9067078 7.5156293,6.3243571 7.107521,6.3479386 5.3326689,6.4504937 1.9901913,6.0285825 1.3563971,8.3554064 Z"
     id="path1061" />
  <path
     style="fill:#ffffff;fill-opacity:1;fill-rule:evenodd;stroke:#ffffff;stroke-width:0.502;stroke-linecap:round;stroke-linejoin:round;stroke-dasharray:none;stroke-opacity:1"
     d="m 12.506894,8.4785998 c 0,0 -0.814143,-7.2015049 0.153459,-7.1358351 1.878417,0.1274855 30.74319,0.2056067 33.348638,0.1221442 0.902903,-0.028923 -0.05426,6.6192181 -0.05426,6.6192181 l -0.128095,-0.1426331 -0.441194,-0.086321 -0.354874,0.028774 -0.239779,0.16305 c 0,0 1.135477,-5.3983483 0.07883,-5.4427144 -10.22228,-0.429209 -20.463491,-0.1370205 -30.69386,0 -1.429803,0.01915 0,5.8359526 0,5.8359526 L 13.907206,8.1524998 13.523558,7.999041 13.120729,7.9414939 12.852176,8.0374057 Z"
     id="path1130" />
</svg>
