<?xml version="1.0" encoding="UTF-8" standalone="no"?>
<!-- Created with Inkscape (http://www.inkscape.org/) -->

<svg
   width="38.731327"
   height="63.12421"
   viewBox="0 0 38.731327 63.12421"
   version="1.1"
   id="SVGRoot"
   xmlns="http://www.w3.org/2000/svg"
   xmlns:svg="http://www.w3.org/2000/svg">
  <defs
     id="defs1049" />
  <g
     id="layer1"
     transform="translate(-13.258835,-0.29087377)">
    <ellipse
       style="fill:none;fill-opacity:1;fill-rule:evenodd;stroke:#ffffff;stroke-width:4.15748;stroke-linecap:round;stroke-linejoin:round;stroke-dasharray:none;stroke-opacity:1;paint-order:stroke fill markers"
       id="path3086"
       cx="32.836071"
       cy="15.656374"
       rx="13.540648"
       ry="13.28676" />
    <path
       style="fill:none;fill-opacity:1;fill-rule:evenodd;stroke:#ffffff;stroke-width:3.77953;stroke-linecap:round;stroke-linejoin:round;stroke-dasharray:none;stroke-opacity:1;paint-order:stroke fill markers"
       d="m 15.148599,61.271431 c 0.02821,-6.149711 0.05642,-12.298767 0.130581,-15.694238 0.07416,-3.395471 0.194434,-4.036878 0.3779,-4.650486 0.183465,-0.613607 0.430163,-1.199058 0.874774,-1.622597 0.44461,-0.423538 1.086386,-0.684435 1.73525,-0.874952 0.648864,-0.190517 1.305209,-0.310828 2.16067,-0.31079 0.855461,3.8e-5 1.912541,0.120023 2.970964,0.254979 1.058423,0.134956 2.11463,0.284382 3.197204,0.449059 1.082575,0.164676 2.190341,0.344411 3.31776,0.493995 1.127419,0.149584 2.273945,0.269003 3.400262,0.268875 1.126317,-1.28e-4 2.232905,-0.119568 3.354743,-0.289156 1.121839,-0.169588 2.257523,-0.389035 3.383341,-0.643364 1.125818,-0.254328 2.241669,-0.543474 3.083033,-0.658235 0.841363,-0.114761 1.406997,-0.0554 1.97971,0.03355 0.572712,0.08894 1.149934,0.206905 1.704968,0.375495 0.555034,0.168589 1.082588,0.385979 1.591473,0.743902 0.508885,0.357924 0.997597,0.8549 1.261597,1.561799 0.264,0.706899 0.30336,1.619017 0.337299,5.133858 0.03394,3.514841 0.06206,9.588903 0.09027,15.682195 0,0 -34.951799,-0.253887 -34.951799,-0.253887 z"
       id="path3261" />
  </g>
</svg>
